<svg width="43" height="40" viewBox="0 0 43 40" fill="none" xmlns="http://www.w3.org/2000/svg">
<path d="M18.1406 36.25C17.606 36.25 17.0934 36.0525 16.7154 35.7008C16.3374 35.3492 16.125 34.8723 16.125 34.375C16.125 33.8777 16.3374 33.4008 16.7154 33.0492C17.0934 32.6975 17.606 32.5 18.1406 32.5C18.6752 32.5 19.1879 32.6975 19.5659 33.0492C19.9439 33.4008 20.1563 33.8777 20.1563 34.375C20.1563 34.8723 19.9439 35.3492 19.5659 35.7008C19.1879 36.0525 18.6752 36.25 18.1406 36.25ZM31.5781 36.25C31.0436 36.25 30.5309 36.0525 30.1529 35.7008C29.7749 35.3492 29.5625 34.8723 29.5625 34.375C29.5625 33.8777 29.7749 33.4008 30.1529 33.0492C30.5309 32.6975 31.0436 32.5 31.5781 32.5C32.1127 32.5 32.6254 32.6975 33.0034 33.0492C33.3814 33.4008 33.5938 33.8777 33.5938 34.375C33.5938 34.8723 33.3814 35.3492 33.0034 35.7008C32.6254 36.0525 32.1127 36.25 31.5781 36.25ZM4.03125 5C3.67487 5 3.33308 4.8683 3.08108 4.63388C2.82907 4.39946 2.6875 4.08152 2.6875 3.75C2.6875 3.41848 2.82907 3.10054 3.08108 2.86612C3.33308 2.6317 3.67487 2.5 4.03125 2.5H10.75C11.0605 2.50017 11.3614 2.60039 11.6015 2.78361C11.8416 2.96683 12.006 3.22174 12.0669 3.505L13.4644 10H38.9688C39.1692 9.99994 39.3671 10.0416 39.548 10.1219C39.7289 10.2023 39.8882 10.3192 40.0142 10.4642C40.1402 10.6093 40.2298 10.7787 40.2763 10.96C40.3228 11.1414 40.325 11.3302 40.2829 11.5125L36.2517 29.0125C36.1871 29.2921 36.0214 29.5427 35.7823 29.7224C35.5431 29.9021 35.2449 30.0001 34.9375 30H16.125C15.8145 29.9998 15.5136 29.8996 15.2735 29.7164C15.0334 29.5332 14.869 29.2783 14.8081 28.995L9.64813 5H4.03125ZM17.2269 27.5H33.8518L37.3079 12.5H14.0019L17.2269 27.5Z" fill="#838383"/>
</svg>
