<svg width="44" height="44" viewBox="0 0 44 44" fill="none" xmlns="http://www.w3.org/2000/svg">
<path d="M21.9998 3.6665C11.8743 3.6665 3.6665 11.8743 3.6665 21.9998C3.6665 32.1253 11.8743 40.3332 21.9998 40.3332C32.1253 40.3332 40.3332 32.1253 40.3332 21.9998C40.3332 11.8743 32.1253 3.6665 21.9998 3.6665Z" stroke="#AFAFAF" stroke-width="1.5" stroke-linecap="round" stroke-linejoin="round"/>
<path d="M7.83008 33.6343C7.83008 33.6343 11.9166 28.4167 21.9999 28.4167C32.0832 28.4167 36.1716 33.6343 36.1716 33.6343M21.9999 22C23.4586 22 24.8575 21.4205 25.889 20.3891C26.9205 19.3576 27.4999 17.9587 27.4999 16.5C27.4999 15.0413 26.9205 13.6424 25.889 12.6109C24.8575 11.5795 23.4586 11 21.9999 11C20.5412 11 19.1423 11.5795 18.1108 12.6109C17.0794 13.6424 16.4999 15.0413 16.4999 16.5C16.4999 17.9587 17.0794 19.3576 18.1108 20.3891C19.1423 21.4205 20.5412 22 21.9999 22Z" stroke="#AFAFAF" stroke-width="1.5" stroke-linecap="round" stroke-linejoin="round"/>
</svg>
