<svg width="38" height="38" viewBox="0 0 38 38" fill="none" xmlns="http://www.w3.org/2000/svg">
<path d="M18.9998 3.16602C10.2598 3.16602 3.1665 10.2593 3.1665 18.9993C3.1665 27.7393 10.2598 34.8327 18.9998 34.8327C27.7398 34.8327 34.8332 27.7393 34.8332 18.9993C34.8332 10.2593 27.7398 3.16602 18.9998 3.16602ZM26.3465 13.9327C26.109 16.4343 25.0798 22.5143 24.5573 25.3168C24.3357 26.5043 23.8923 26.9002 23.4807 26.9477C22.5623 27.0268 21.8657 26.346 20.979 25.7602C19.5857 24.8418 18.794 24.2718 17.4482 23.3852C15.8807 22.356 16.894 21.786 17.7965 20.8677C18.034 20.6302 22.0873 16.941 22.1665 16.6085C22.1775 16.5582 22.176 16.5059 22.1622 16.4562C22.1484 16.4065 22.1227 16.361 22.0873 16.3235C21.9923 16.2443 21.8657 16.276 21.7548 16.2918C21.6123 16.3235 19.3957 17.796 15.0732 20.7093C14.4398 21.1368 13.8698 21.3585 13.3632 21.3427C12.7932 21.3268 11.7165 21.026 10.909 20.7568C9.9115 20.4402 9.13567 20.266 9.199 19.7118C9.23067 19.4268 9.6265 19.1418 10.3707 18.841C14.994 16.8302 18.0657 15.5002 19.6015 14.8668C24.0032 13.0302 24.9057 12.7135 25.5073 12.7135C25.634 12.7135 25.9348 12.7452 26.1248 12.9035C26.2832 13.0302 26.3307 13.2043 26.3465 13.331C26.3307 13.426 26.3623 13.711 26.3465 13.9327Z" fill="black"/>
</svg>
