<svg width="38" height="37" viewBox="0 0 38 37" fill="none" xmlns="http://www.w3.org/2000/svg">
<path d="M19.0018 3.08398C27.7466 3.08398 34.8351 9.98603 34.8351 18.5007C34.8351 27.0153 27.7466 33.9173 19.0018 33.9173C16.2037 33.922 13.4547 33.201 11.0376 31.8284L3.17481 33.9173L5.31548 26.2583C3.90467 23.9041 3.16358 21.2263 3.16848 18.5007C3.16848 9.98603 10.2571 3.08398 19.0018 3.08398ZM13.6058 11.2548L13.2891 11.2672C13.0844 11.2809 12.8844 11.3332 12.7001 11.4213C12.5285 11.5161 12.3717 11.6345 12.2346 11.7728C12.0446 11.947 11.937 12.0981 11.8214 12.2446C11.2358 12.986 10.9204 13.8962 10.9252 14.8315C10.9284 15.5869 11.1311 16.3223 11.4477 17.0099C12.0953 18.4004 13.1609 19.8727 14.5669 21.2371C14.9057 21.5655 15.2382 21.8954 15.5961 22.2022C17.3432 23.6998 19.425 24.7798 21.6761 25.3564L22.5754 25.4906C22.8683 25.506 23.1612 25.4844 23.4557 25.4705C23.9168 25.4469 24.3669 25.3253 24.7747 25.1144C24.9818 25.0101 25.1842 24.8969 25.3811 24.7752C25.3811 24.7752 25.4481 24.731 25.579 24.6365C25.7927 24.4823 25.9242 24.3729 26.1015 24.1925C26.2345 24.0589 26.3453 23.9037 26.434 23.7269C26.5575 23.4756 26.681 22.9961 26.7316 22.5969C26.7696 22.2916 26.7586 22.1251 26.7538 22.0218C26.7475 21.8569 26.6066 21.6857 26.453 21.6133L25.5315 21.2109C25.5315 21.2109 24.154 20.6266 23.3116 20.2535C23.2235 20.2162 23.129 20.1947 23.033 20.1903C22.9246 20.1793 22.8151 20.1911 22.7119 20.2248C22.6086 20.2586 22.514 20.3136 22.4345 20.3861C22.4266 20.383 22.3205 20.4709 21.1757 21.8214C21.11 21.9074 21.0195 21.9723 20.9158 22.008C20.812 22.0437 20.6996 22.0485 20.5931 22.0218C20.4899 21.995 20.3888 21.961 20.2906 21.9201C20.0943 21.8399 20.0262 21.8091 19.8916 21.7536C18.9826 21.368 18.1412 20.8463 17.3979 20.2073C17.1984 20.0377 17.0131 19.8527 16.8231 19.6739C16.2003 19.093 15.6574 18.4359 15.2081 17.719L15.1147 17.5726C15.0486 17.4736 14.9945 17.3675 14.9532 17.2565C14.8931 17.0299 15.0498 16.848 15.0498 16.848C15.0498 16.848 15.4346 16.4379 15.6135 16.2159C15.7876 16.0001 15.9349 15.7904 16.0299 15.6409C16.2167 15.3479 16.2753 15.0473 16.1771 14.8145C15.7338 13.76 15.2757 12.7112 14.8028 11.668C14.7094 11.4614 14.4323 11.3134 14.1806 11.2841C14.0951 11.2738 14.0096 11.2656 13.9241 11.2594C13.7115 11.2476 13.4983 11.2496 13.286 11.2656L13.6058 11.2548Z" fill="#9C9C9C"/>
</svg>
